<?xml version="1.0" encoding="utf-8"?>
<svg xmlns="http://www.w3.org/2000/svg" width="820" height="480" viewBox="0 0 820 480" xmlns="http://www.w3.org/2000/svg">
  <title>Coupling Cancellation Rate vs Agent Count</title>
  <rect width="820" height="480" fill="#0f1117" />
  <text x="410" y="32" text-anchor="middle" font-family="monospace" font-size="14" font-weight="bold" fill="#e2e8f0">Coupling Cancellation Rate: 1 − δ(n)   [target 86.4% @ n=50]</text>
  <polygon points="70.0,420.0 70.0,80.83333333333337 77.27272727272728,337.48783063053776 84.54545454545455,379.9231498429108 91.81818181818181,388.9582718159652 99.0909090909091,389.1666666666667 106.36363636363636,386.5638926478509 113.63636363636364,383.0696117377943 120.9090909090909,379.38729687297115 128.1818181818182,375.79054024491234 135.45454545454544,372.38346343283 142.72727272727272,369.1988964378619 150.0,366.2388415980698 157.27272727272728,363.49223296181685 164.54545454545456,360.9430252784603 171.8181818181818,358.57392942068276 179.0909090909091,356.36813409184066 186.36363636363637,354.3100187796679 193.63636363636363,352.3854192177618 200.9090909090909,350.5816311778894 208.18181818181816,348.887349793077 215.45454545454544,347.29253682686715 222.72727272727272,345.7882803579623 230.0,344.36667721870947 237.27272727272728,343.020688887437 244.54545454545456,341.744050473088 251.81818181818184,340.5311721152401 259.0909090909091,339.37705176104566 266.3636363636364,338.2771955267866 273.6363636363636,337.22756839788394 280.9090909090909,336.22452975967974 288.1818181818182,335.2647878897544 295.4545454545455,334.34536961947083 302.72727272727275,333.4635634493702 310.0,332.6169043799448 317.27272727272725,331.8031511577958 324.5454545454545,331.0202483525645 331.8181818181818,330.26631498001086 339.0909090909091,329.5396255404796 346.3636363636363,328.83859484967167 353.6363636363636,328.1617552848032 360.9090909090909,327.5077643692191 368.1818181818182,326.87537064163075 375.45454545454544,326.26341744842307 382.72727272727275,325.67083915134714 390.0,325.096642165986 397.27272727272725,324.5398973771405 404.54545454545456,323.9997439311364 411.8181818181818,323.47537785890336 419.0909090909091,322.96605207597526 426.3636363636364,322.47106121326203 433.6363636363637,321.98974920166404 440.9090909090909,321.5215016874577 448.18181818181824,321.06573844768195 455.45454545454544,320.6219209747519 462.7272727272727,320.18953351492456 470.0,319.768098237526 477.27272727272725,319.3571600657239 484.54545454545456,318.9562980534486 491.8181818181818,318.5650988392441 499.09090909090907,318.1831907770308 506.3636363636364,317.810206013036 513.6363636363636,317.4458070319423 520.909090909091,317.08967148766044 528.1818181818182,316.7414884110216 535.4545454545455,316.40096958669875 542.7272727272727,316.0678419685926 550.0,315.7418363029106 557.2727272727273,315.42270608970205 564.5454545454545,315.1102124136301 571.8181818181819,314.8041315285855 579.090909090909,314.5042434807661 586.3636363636364,314.21034727790425 593.6363636363636,313.9222419277324 600.9090909090909,313.6397453995176 608.1818181818182,313.3626718702202 615.4545454545455,313.0908582706418 622.7272727272726,312.82413394697045 630.0,312.5623434146217 637.2727272727273,312.3053387736252 644.5454545454546,312.0529759163173 651.8181818181818,311.80511452734146 659.0909090909091,311.5616256682619 666.3636363636364,311.3223804006427 673.6363636363636,311.0872573706622 680.9090909090909,310.85614280911204 688.1818181818181,310.62891915447744 695.4545454545455,310.4054802221641 702.7272727272727,310.18572741219174 710.0,309.96955074765924 717.2727272727273,309.75686300550717 724.5454545454545,309.547569378062 731.8181818181819,309.3415788499574 739.0909090909091,309.13880799044074 746.3636363636364,308.9391695764525 753.6363636363636,308.7425877618541 760.9090909090909,308.5489829081997 768.1818181818182,308.3582829616577 775.4545454545455,308.1704158683963 782.7272727272727,307.98531336689064 790.0,307.8029034033089 790.0,420.0" fill="#68d391" opacity="0.25" />
  <polyline points="70.0,80.83333333333337 77.27272727272728,337.48783063053776 84.54545454545455,379.9231498429108 91.81818181818181,388.9582718159652 99.0909090909091,389.1666666666667 106.36363636363636,386.5638926478509 113.63636363636364,383.0696117377943 120.9090909090909,379.38729687297115 128.1818181818182,375.79054024491234 135.45454545454544,372.38346343283 142.72727272727272,369.1988964378619 150.0,366.2388415980698 157.27272727272728,363.49223296181685 164.54545454545456,360.9430252784603 171.8181818181818,358.57392942068276 179.0909090909091,356.36813409184066 186.36363636363637,354.3100187796679 193.63636363636363,352.3854192177618 200.9090909090909,350.5816311778894 208.18181818181816,348.887349793077 215.45454545454544,347.29253682686715 222.72727272727272,345.7882803579623 230.0,344.36667721870947 237.27272727272728,343.020688887437 244.54545454545456,341.744050473088 251.81818181818184,340.5311721152401 259.0909090909091,339.37705176104566 266.3636363636364,338.2771955267866 273.6363636363636,337.22756839788394 280.9090909090909,336.22452975967974 288.1818181818182,335.2647878897544 295.4545454545455,334.34536961947083 302.72727272727275,333.4635634493702 310.0,332.6169043799448 317.27272727272725,331.8031511577958 324.5454545454545,331.0202483525645 331.8181818181818,330.26631498001086 339.0909090909091,329.5396255404796 346.3636363636363,328.83859484967167 353.6363636363636,328.1617552848032 360.9090909090909,327.5077643692191 368.1818181818182,326.87537064163075 375.45454545454544,326.26341744842307 382.72727272727275,325.67083915134714 390.0,325.096642165986 397.27272727272725,324.5398973771405 404.54545454545456,323.9997439311364 411.8181818181818,323.47537785890336 419.0909090909091,322.96605207597526 426.3636363636364,322.47106121326203 433.6363636363637,321.98974920166404 440.9090909090909,321.5215016874577 448.18181818181824,321.06573844768195 455.45454545454544,320.6219209747519 462.7272727272727,320.18953351492456 470.0,319.768098237526 477.27272727272725,319.3571600657239 484.54545454545456,318.9562980534486 491.8181818181818,318.5650988392441 499.09090909090907,318.1831907770308 506.3636363636364,317.810206013036 513.6363636363636,317.4458070319423 520.909090909091,317.08967148766044 528.1818181818182,316.7414884110216 535.4545454545455,316.40096958669875 542.7272727272727,316.0678419685926 550.0,315.7418363029106 557.2727272727273,315.42270608970205 564.5454545454545,315.1102124136301 571.8181818181819,314.8041315285855 579.090909090909,314.5042434807661 586.3636363636364,314.21034727790425 593.6363636363636,313.9222419277324 600.9090909090909,313.6397453995176 608.1818181818182,313.3626718702202 615.4545454545455,313.0908582706418 622.7272727272726,312.82413394697045 630.0,312.5623434146217 637.2727272727273,312.3053387736252 644.5454545454546,312.0529759163173 651.8181818181818,311.80511452734146 659.0909090909091,311.5616256682619 666.3636363636364,311.3223804006427 673.6363636363636,311.0872573706622 680.9090909090909,310.85614280911204 688.1818181818181,310.62891915447744 695.4545454545455,310.4054802221641 702.7272727272727,310.18572741219174 710.0,309.96955074765924 717.2727272727273,309.75686300550717 724.5454545454545,309.547569378062 731.8181818181819,309.3415788499574 739.0909090909091,309.13880799044074 746.3636363636364,308.9391695764525 753.6363636363636,308.7425877618541 760.9090909090909,308.5489829081997 768.1818181818182,308.3582829616577 775.4545454545455,308.1704158683963 782.7272727272727,307.98531336689064 790.0,307.8029034033089" fill="none" stroke="#68d391" stroke-width="2.2" stroke-linejoin="round" stroke-linecap="round" />
  <line x1="70" y1="420" x2="790" y2="420" stroke="#4a5568" stroke-width="1" />
  <line x1="70" y1="50" x2="70" y2="420" stroke="#4a5568" stroke-width="1" />
  <line x1="70.0" y1="420" x2="70.0" y2="425" stroke="#718096" stroke-width="1" />
  <text x="70.0" y="438" text-anchor="middle" font-family="monospace" font-size="10" fill="#a0aec0">1</text>
  <line x1="135.45454545454544" y1="420" x2="135.45454545454544" y2="425" stroke="#718096" stroke-width="1" />
  <text x="135.45454545454544" y="438" text-anchor="middle" font-family="monospace" font-size="10" fill="#a0aec0">10</text>
  <line x1="208.18181818181816" y1="420" x2="208.18181818181816" y2="425" stroke="#718096" stroke-width="1" />
  <text x="208.18181818181816" y="438" text-anchor="middle" font-family="monospace" font-size="10" fill="#a0aec0">20</text>
  <line x1="280.9090909090909" y1="420" x2="280.9090909090909" y2="425" stroke="#718096" stroke-width="1" />
  <text x="280.9090909090909" y="438" text-anchor="middle" font-family="monospace" font-size="10" fill="#a0aec0">30</text>
  <line x1="353.6363636363636" y1="420" x2="353.6363636363636" y2="425" stroke="#718096" stroke-width="1" />
  <text x="353.6363636363636" y="438" text-anchor="middle" font-family="monospace" font-size="10" fill="#a0aec0">40</text>
  <line x1="426.3636363636364" y1="420" x2="426.3636363636364" y2="425" stroke="#718096" stroke-width="1" />
  <text x="426.3636363636364" y="438" text-anchor="middle" font-family="monospace" font-size="10" fill="#a0aec0">50</text>
  <line x1="499.09090909090907" y1="420" x2="499.09090909090907" y2="425" stroke="#718096" stroke-width="1" />
  <text x="499.09090909090907" y="438" text-anchor="middle" font-family="monospace" font-size="10" fill="#a0aec0">60</text>
  <line x1="571.8181818181819" y1="420" x2="571.8181818181819" y2="425" stroke="#718096" stroke-width="1" />
  <text x="571.8181818181819" y="438" text-anchor="middle" font-family="monospace" font-size="10" fill="#a0aec0">70</text>
  <line x1="644.5454545454546" y1="420" x2="644.5454545454546" y2="425" stroke="#718096" stroke-width="1" />
  <text x="644.5454545454546" y="438" text-anchor="middle" font-family="monospace" font-size="10" fill="#a0aec0">80</text>
  <line x1="717.2727272727273" y1="420" x2="717.2727272727273" y2="425" stroke="#718096" stroke-width="1" />
  <text x="717.2727272727273" y="438" text-anchor="middle" font-family="monospace" font-size="10" fill="#a0aec0">90</text>
  <line x1="790.0" y1="420" x2="790.0" y2="425" stroke="#718096" stroke-width="1" />
  <text x="790.0" y="438" text-anchor="middle" font-family="monospace" font-size="10" fill="#a0aec0">100</text>
  <line x1="65" y1="420.0" x2="70" y2="420.0" stroke="#718096" stroke-width="1" />
  <line x1="70" y1="420.0" x2="790" y2="420.0" stroke="#2d3748" stroke-width="1" stroke-dasharray="4,4" />
  <text x="62" y="424.0" text-anchor="end" font-family="monospace" font-size="10" fill="#a0aec0">0.606</text>
  <line x1="65" y1="346.0" x2="70" y2="346.0" stroke="#718096" stroke-width="1" />
  <line x1="70" y1="346.0" x2="790" y2="346.0" stroke="#2d3748" stroke-width="1" stroke-dasharray="4,4" />
  <text x="62" y="350.0" text-anchor="end" font-family="monospace" font-size="10" fill="#a0aec0">0.801</text>
  <line x1="65" y1="272.0" x2="70" y2="272.0" stroke="#718096" stroke-width="1" />
  <line x1="70" y1="272.0" x2="790" y2="272.0" stroke="#2d3748" stroke-width="1" stroke-dasharray="4,4" />
  <text x="62" y="276.0" text-anchor="end" font-family="monospace" font-size="10" fill="#a0aec0">0.996</text>
  <line x1="65" y1="198.0" x2="70" y2="198.0" stroke="#718096" stroke-width="1" />
  <line x1="70" y1="198.0" x2="790" y2="198.0" stroke="#2d3748" stroke-width="1" stroke-dasharray="4,4" />
  <text x="62" y="202.0" text-anchor="end" font-family="monospace" font-size="10" fill="#a0aec0">1.191</text>
  <line x1="65" y1="123.99999999999994" x2="70" y2="123.99999999999994" stroke="#718096" stroke-width="1" />
  <line x1="70" y1="123.99999999999994" x2="790" y2="123.99999999999994" stroke="#2d3748" stroke-width="1" stroke-dasharray="4,4" />
  <text x="62" y="127.99999999999994" text-anchor="end" font-family="monospace" font-size="10" fill="#a0aec0">1.386</text>
  <line x1="65" y1="50.0" x2="70" y2="50.0" stroke="#718096" stroke-width="1" />
  <line x1="70" y1="50.0" x2="790" y2="50.0" stroke="#2d3748" stroke-width="1" stroke-dasharray="4,4" />
  <text x="62" y="54.0" text-anchor="end" font-family="monospace" font-size="10" fill="#a0aec0">1.581</text>
  <text x="430" y="465" text-anchor="middle" font-family="monospace" font-size="12" fill="#cbd5e0">Agent Count (n)</text>
  <text x="-235" y="16" text-anchor="middle" font-family="monospace" font-size="12" fill="#cbd5e0" transform="rotate(-90)">Cancellation Rate</text>
  <circle cx="426.3636363636364" cy="322.47106121326203" r="5" fill="#f6ad55" stroke="#fff" stroke-width="1.5" />
  <line x1="426.3636363636364" y1="322.47106121326203" x2="426.3636363636364" y2="420" stroke="#f6ad55" stroke-width="1" stroke-dasharray="3,3" />
  <text x="433.3636363636364" y="314.47106121326203" font-family="monospace" font-size="10" fill="#f6ad55">n=50: 0.863</text>
  <line x1="70" y1="322.0240544101996" x2="790" y2="322.0240544101996" stroke="#fc8181" stroke-width="1.5" stroke-dasharray="6,3" />
  <text x="786" y="317.0240544101996" text-anchor="end" font-family="monospace" font-size="10" fill="#fc8181">target 86.4%</text>
</svg>
