<?xml version="1.0" encoding="utf-8"?>
<svg xmlns="http://www.w3.org/2000/svg" width="820" height="480" viewBox="0 0 820 480" xmlns="http://www.w3.org/2000/svg">
  <title>CLT Coupling Correction: delta(n) vs Agent Count</title>
  <rect width="820" height="480" fill="#0f1117" />
  <text x="410" y="32" text-anchor="middle" font-family="monospace" font-size="14" font-weight="bold" fill="#e2e8f0">CLT Scaling Curve: δ(n) = (1/√n)(1 − 3/2n)</text>
  <polygon points="70.0,199.55131990812404 70.0,389.1666666666667 77.27272727272728,132.5121693694623 84.54545454545455,90.07685015708927 91.81818181818181,81.04172818403487 99.0909090909091,80.83333333333331 106.36363636363636,83.43610735214912 113.63636363636364,86.93038826220572 120.9090909090909,90.61270312702891 128.1818181818182,94.20945975508766 135.45454545454544,97.61653656717004 142.72727272727272,100.80110356213811 150.0,103.76115840193023 157.27272727272728,106.5077670381832 164.54545454545456,109.05697472153975 171.8181818181818,111.42607057931724 179.0909090909091,113.6318659081594 186.36363636363637,115.68998122033213 193.63636363636363,117.61458078223825 200.9090909090909,119.41836882211066 208.18181818181816,121.11265020692304 215.45454545454544,122.70746317313285 222.72727272727272,124.21171964203774 230.0,125.63332278129053 237.27272727272728,126.97931111256304 244.54545454545456,128.255949526912 251.81818181818184,129.46882788475995 259.0909090909091,130.62294823895434 266.3636363636364,131.7228044732134 273.6363636363636,132.77243160211611 280.9090909090909,133.77547024032026 288.1818181818182,134.73521211024558 295.4545454545455,135.65463038052917 302.72727272727275,136.5364365506298 310.0,137.38309562005526 317.27272727272725,138.1968488422042 324.5454545454545,138.97975164743553 331.8181818181818,139.73368501998914 339.0909090909091,140.46037445952044 346.3636363636363,141.1614051503284 353.6363636363636,141.83824471519688 360.9090909090909,142.492235630781 368.1818181818182,143.12462935836925 375.45454545454544,143.736582551577 382.72727272727275,144.32916084865292 390.0,144.90335783401406 397.27272727272725,145.46010262285955 404.54545454545456,146.00025606886362 411.8181818181818,146.5246221410967 419.0909090909091,147.03394792402474 426.3636363636364,147.52893878673797 433.6363636363637,148.01025079833596 440.9090909090909,148.47849831254229 448.18181818181824,148.9342615523181 455.45454545454544,149.3780790252481 462.7272727272727,149.8104664850755 470.0,150.23190176247408 477.27272727272725,150.64283993427608 484.54545454545456,151.04370194655138 491.8181818181818,151.43490116075589 499.09090909090907,151.8168092229692 506.3636363636364,152.1897939869641 513.6363636363636,152.55419296805775 520.909090909091,152.91032851233962 528.1818181818182,153.25851158897842 535.4545454545455,153.5990304133013 542.7272727272727,153.93215803140748 550.0,154.25816369708946 557.2727272727273,154.57729391029795 564.5454545454545,154.88978758636995 571.8181818181819,155.19586847141449 579.090909090909,155.49575651923396 586.3636363636364,155.7896527220958 593.6363636363636,156.07775807226767 600.9090909090909,156.3602546004824 608.1818181818182,156.63732812977986 615.4545454545455,156.90914172935823 622.7272727272726,157.1758660530296 630.0,157.4376565853783 637.2727272727273,157.69466122637488 644.5454545454546,157.94702408368272 651.8181818181818,158.19488547265854 659.0909090909091,158.43837433173815 666.3636363636364,158.67761959935729 673.6363636363636,158.91274262933786 680.9090909090909,159.14385719088796 688.1818181818181,159.3710808455226 695.4545454545455,159.59451977783596 702.7272727272727,159.81427258780832 710.0,160.03044925234076 717.2727272727273,160.2431369944929 724.5454545454545,160.452430621938 731.8181818181819,160.6584211500426 739.0909090909091,160.86119200955932 746.3636363636364,161.0608304235475 753.6363636363636,161.25741223814595 760.9090909090909,161.45101709180028 768.1818181818182,161.64171703834228 775.4545454545455,161.82958413160372 782.7272727272727,162.01468663310942 790.0,162.1970965966911 790.0,199.55131990812404" fill="#63b3ed" opacity="0.25" />
  <polyline points="70.0,389.1666666666667 77.27272727272728,132.5121693694623 84.54545454545455,90.07685015708927 91.81818181818181,81.04172818403487 99.0909090909091,80.83333333333331 106.36363636363636,83.43610735214912 113.63636363636364,86.93038826220572 120.9090909090909,90.61270312702891 128.1818181818182,94.20945975508766 135.45454545454544,97.61653656717004 142.72727272727272,100.80110356213811 150.0,103.76115840193023 157.27272727272728,106.5077670381832 164.54545454545456,109.05697472153975 171.8181818181818,111.42607057931724 179.0909090909091,113.6318659081594 186.36363636363637,115.68998122033213 193.63636363636363,117.61458078223825 200.9090909090909,119.41836882211066 208.18181818181816,121.11265020692304 215.45454545454544,122.70746317313285 222.72727272727272,124.21171964203774 230.0,125.63332278129053 237.27272727272728,126.97931111256304 244.54545454545456,128.255949526912 251.81818181818184,129.46882788475995 259.0909090909091,130.62294823895434 266.3636363636364,131.7228044732134 273.6363636363636,132.77243160211611 280.9090909090909,133.77547024032026 288.1818181818182,134.73521211024558 295.4545454545455,135.65463038052917 302.72727272727275,136.5364365506298 310.0,137.38309562005526 317.27272727272725,138.1968488422042 324.5454545454545,138.97975164743553 331.8181818181818,139.73368501998914 339.0909090909091,140.46037445952044 346.3636363636363,141.1614051503284 353.6363636363636,141.83824471519688 360.9090909090909,142.492235630781 368.1818181818182,143.12462935836925 375.45454545454544,143.736582551577 382.72727272727275,144.32916084865292 390.0,144.90335783401406 397.27272727272725,145.46010262285955 404.54545454545456,146.00025606886362 411.8181818181818,146.5246221410967 419.0909090909091,147.03394792402474 426.3636363636364,147.52893878673797 433.6363636363637,148.01025079833596 440.9090909090909,148.47849831254229 448.18181818181824,148.9342615523181 455.45454545454544,149.3780790252481 462.7272727272727,149.8104664850755 470.0,150.23190176247408 477.27272727272725,150.64283993427608 484.54545454545456,151.04370194655138 491.8181818181818,151.43490116075589 499.09090909090907,151.8168092229692 506.3636363636364,152.1897939869641 513.6363636363636,152.55419296805775 520.909090909091,152.91032851233962 528.1818181818182,153.25851158897842 535.4545454545455,153.5990304133013 542.7272727272727,153.93215803140748 550.0,154.25816369708946 557.2727272727273,154.57729391029795 564.5454545454545,154.88978758636995 571.8181818181819,155.19586847141449 579.090909090909,155.49575651923396 586.3636363636364,155.7896527220958 593.6363636363636,156.07775807226767 600.9090909090909,156.3602546004824 608.1818181818182,156.63732812977986 615.4545454545455,156.90914172935823 622.7272727272726,157.1758660530296 630.0,157.4376565853783 637.2727272727273,157.69466122637488 644.5454545454546,157.94702408368272 651.8181818181818,158.19488547265854 659.0909090909091,158.43837433173815 666.3636363636364,158.67761959935729 673.6363636363636,158.91274262933786 680.9090909090909,159.14385719088796 688.1818181818181,159.3710808455226 695.4545454545455,159.59451977783596 702.7272727272727,159.81427258780832 710.0,160.03044925234076 717.2727272727273,160.2431369944929 724.5454545454545,160.452430621938 731.8181818181819,160.6584211500426 739.0909090909091,160.86119200955932 746.3636363636364,161.0608304235475 753.6363636363636,161.25741223814595 760.9090909090909,161.45101709180028 768.1818181818182,161.64171703834228 775.4545454545455,161.82958413160372 782.7272727272727,162.01468663310942 790.0,162.1970965966911" fill="none" stroke="#63b3ed" stroke-width="2.2" stroke-linejoin="round" stroke-linecap="round" />
  <line x1="70" y1="199.55131990812404" x2="790" y2="199.55131990812404" stroke="#4a5568" stroke-width="1" />
  <line x1="70" y1="50" x2="70" y2="420" stroke="#4a5568" stroke-width="1" />
  <line x1="70.0" y1="420" x2="70.0" y2="425" stroke="#718096" stroke-width="1" />
  <text x="70.0" y="438" text-anchor="middle" font-family="monospace" font-size="10" fill="#a0aec0">1</text>
  <line x1="135.45454545454544" y1="420" x2="135.45454545454544" y2="425" stroke="#718096" stroke-width="1" />
  <text x="135.45454545454544" y="438" text-anchor="middle" font-family="monospace" font-size="10" fill="#a0aec0">10</text>
  <line x1="208.18181818181816" y1="420" x2="208.18181818181816" y2="425" stroke="#718096" stroke-width="1" />
  <text x="208.18181818181816" y="438" text-anchor="middle" font-family="monospace" font-size="10" fill="#a0aec0">20</text>
  <line x1="280.9090909090909" y1="420" x2="280.9090909090909" y2="425" stroke="#718096" stroke-width="1" />
  <text x="280.9090909090909" y="438" text-anchor="middle" font-family="monospace" font-size="10" fill="#a0aec0">30</text>
  <line x1="353.6363636363636" y1="420" x2="353.6363636363636" y2="425" stroke="#718096" stroke-width="1" />
  <text x="353.6363636363636" y="438" text-anchor="middle" font-family="monospace" font-size="10" fill="#a0aec0">40</text>
  <line x1="426.3636363636364" y1="420" x2="426.3636363636364" y2="425" stroke="#718096" stroke-width="1" />
  <text x="426.3636363636364" y="438" text-anchor="middle" font-family="monospace" font-size="10" fill="#a0aec0">50</text>
  <line x1="499.09090909090907" y1="420" x2="499.09090909090907" y2="425" stroke="#718096" stroke-width="1" />
  <text x="499.09090909090907" y="438" text-anchor="middle" font-family="monospace" font-size="10" fill="#a0aec0">60</text>
  <line x1="571.8181818181819" y1="420" x2="571.8181818181819" y2="425" stroke="#718096" stroke-width="1" />
  <text x="571.8181818181819" y="438" text-anchor="middle" font-family="monospace" font-size="10" fill="#a0aec0">70</text>
  <line x1="644.5454545454546" y1="420" x2="644.5454545454546" y2="425" stroke="#718096" stroke-width="1" />
  <text x="644.5454545454546" y="438" text-anchor="middle" font-family="monospace" font-size="10" fill="#a0aec0">80</text>
  <line x1="717.2727272727273" y1="420" x2="717.2727272727273" y2="425" stroke="#718096" stroke-width="1" />
  <text x="717.2727272727273" y="438" text-anchor="middle" font-family="monospace" font-size="10" fill="#a0aec0">90</text>
  <line x1="790.0" y1="420" x2="790.0" y2="425" stroke="#718096" stroke-width="1" />
  <text x="790.0" y="438" text-anchor="middle" font-family="monospace" font-size="10" fill="#a0aec0">100</text>
  <line x1="65" y1="420.0" x2="70" y2="420.0" stroke="#718096" stroke-width="1" />
  <line x1="70" y1="420.0" x2="790" y2="420.0" stroke="#2d3748" stroke-width="1" stroke-dasharray="4,4" />
  <text x="62" y="424.0" text-anchor="end" font-family="monospace" font-size="10" fill="#a0aec0">-0.5813</text>
  <line x1="65" y1="346.0" x2="70" y2="346.0" stroke="#718096" stroke-width="1" />
  <line x1="70" y1="346.0" x2="790" y2="346.0" stroke="#2d3748" stroke-width="1" stroke-dasharray="4,4" />
  <text x="62" y="350.0" text-anchor="end" font-family="monospace" font-size="10" fill="#a0aec0">-0.3862</text>
  <line x1="65" y1="272.0" x2="70" y2="272.0" stroke="#718096" stroke-width="1" />
  <line x1="70" y1="272.0" x2="790" y2="272.0" stroke="#2d3748" stroke-width="1" stroke-dasharray="4,4" />
  <text x="62" y="276.0" text-anchor="end" font-family="monospace" font-size="10" fill="#a0aec0">-0.1910</text>
  <line x1="65" y1="197.99999999999997" x2="70" y2="197.99999999999997" stroke="#718096" stroke-width="1" />
  <line x1="70" y1="197.99999999999997" x2="790" y2="197.99999999999997" stroke="#2d3748" stroke-width="1" stroke-dasharray="4,4" />
  <text x="62" y="201.99999999999997" text-anchor="end" font-family="monospace" font-size="10" fill="#a0aec0">0.0041</text>
  <line x1="65" y1="124.0" x2="70" y2="124.0" stroke="#718096" stroke-width="1" />
  <line x1="70" y1="124.0" x2="790" y2="124.0" stroke="#2d3748" stroke-width="1" stroke-dasharray="4,4" />
  <text x="62" y="128.0" text-anchor="end" font-family="monospace" font-size="10" fill="#a0aec0">0.1992</text>
  <line x1="65" y1="50.0" x2="70" y2="50.0" stroke="#718096" stroke-width="1" />
  <line x1="70" y1="50.0" x2="790" y2="50.0" stroke="#2d3748" stroke-width="1" stroke-dasharray="4,4" />
  <text x="62" y="54.0" text-anchor="end" font-family="monospace" font-size="10" fill="#a0aec0">0.3944</text>
  <text x="430" y="465" text-anchor="middle" font-family="monospace" font-size="12" fill="#cbd5e0">Agent Count (n)</text>
  <text x="-235" y="16" text-anchor="middle" font-family="monospace" font-size="12" fill="#cbd5e0" transform="rotate(-90)">δ(n)  [coupling correction]</text>
  <circle cx="426.3636363636364" cy="147.52893878673797" r="5" fill="#f6ad55" stroke="#fff" stroke-width="1.5" />
  <line x1="426.3636363636364" y1="147.52893878673797" x2="426.3636363636364" y2="420" stroke="#f6ad55" stroke-width="1" stroke-dasharray="3,3" />
  <text x="433.3636363636364" y="139.52893878673797" font-family="monospace" font-size="10" fill="#f6ad55">n=50: 0.1372</text>
</svg>
